<mxfile host="Electron" modified="2024-01-31T14:50:41.873Z" agent="Mozilla/5.0 (Windows NT 10.0; Win64; x64) AppleWebKit/537.36 (KHTML, like Gecko) draw.io/22.1.21 Chrome/120.0.6099.109 Electron/28.1.0 Safari/537.36" etag="R620v2IVj8hHsDMgFupZ" version="22.1.21" type="device">
  <diagram name="Page-1" id="bf55CM-UF1sACK0ydFgU">
    <mxGraphModel dx="1195" dy="712" grid="1" gridSize="10" guides="1" tooltips="1" connect="1" arrows="1" fold="1" page="1" pageScale="1" pageWidth="850" pageHeight="1100" math="0" shadow="0">
      <root>
        <mxCell id="0" />
        <mxCell id="1" parent="0" />
        <mxCell id="A-W998lmlx4RPp3HRFfS-11" value="" style="rounded=0;whiteSpace=wrap;html=1;labelPosition=center;verticalLabelPosition=middle;align=center;verticalAlign=top;strokeColor=none;" parent="1" vertex="1">
          <mxGeometry x="20" y="120" width="810" height="320" as="geometry" />
        </mxCell>
        <mxCell id="A-W998lmlx4RPp3HRFfS-10" value="Pipeline" style="rounded=0;whiteSpace=wrap;html=1;labelPosition=center;verticalLabelPosition=middle;align=center;verticalAlign=top;fillColor=none;dashed=1;" parent="1" vertex="1">
          <mxGeometry x="60" y="170" width="720" height="240" as="geometry" />
        </mxCell>
        <mxCell id="yD5JBroYXntyzIU_LStq-3" value="Operator" style="rounded=0;whiteSpace=wrap;html=1;labelPosition=center;verticalLabelPosition=middle;align=center;verticalAlign=top;" vertex="1" parent="1">
          <mxGeometry x="70" y="210" width="260" height="170" as="geometry" />
        </mxCell>
        <mxCell id="A-W998lmlx4RPp3HRFfS-5" style="edgeStyle=orthogonalEdgeStyle;rounded=0;orthogonalLoop=1;jettySize=auto;html=1;exitX=1;exitY=0.5;exitDx=0;exitDy=0;entryX=0;entryY=0.5;entryDx=0;entryDy=0;" parent="1" source="A-W998lmlx4RPp3HRFfS-3" target="yD5JBroYXntyzIU_LStq-1" edge="1">
          <mxGeometry relative="1" as="geometry" />
        </mxCell>
        <mxCell id="A-W998lmlx4RPp3HRFfS-1" value="OutputPortPlugin" style="rounded=0;whiteSpace=wrap;html=1;labelPosition=center;verticalLabelPosition=middle;align=center;verticalAlign=top;" parent="1" vertex="1">
          <mxGeometry x="115" y="260" width="215" height="80" as="geometry" />
        </mxCell>
        <mxCell id="yD5JBroYXntyzIU_LStq-13" value="Operator" style="rounded=0;whiteSpace=wrap;html=1;labelPosition=center;verticalLabelPosition=middle;align=center;verticalAlign=top;" vertex="1" parent="1">
          <mxGeometry x="510" y="210" width="260" height="170" as="geometry" />
        </mxCell>
        <mxCell id="A-W998lmlx4RPp3HRFfS-2" value="InputPortPlugin" style="rounded=0;whiteSpace=wrap;html=1;labelPosition=center;verticalLabelPosition=middle;align=center;verticalAlign=top;" parent="1" vertex="1">
          <mxGeometry x="510" y="260" width="215" height="80" as="geometry" />
        </mxCell>
        <mxCell id="A-W998lmlx4RPp3HRFfS-3" value="&lt;font style=&quot;font-size: 10px;&quot;&gt;ChannelWriter&lt;/font&gt;" style="rounded=0;whiteSpace=wrap;html=1;labelPosition=center;verticalLabelPosition=middle;align=center;verticalAlign=middle;" parent="1" vertex="1">
          <mxGeometry x="245" y="285" width="85" height="30" as="geometry" />
        </mxCell>
        <mxCell id="A-W998lmlx4RPp3HRFfS-4" value="&lt;font style=&quot;font-size: 11px;&quot;&gt;ChannelReader&lt;/font&gt;" style="rounded=0;whiteSpace=wrap;html=1;labelPosition=center;verticalLabelPosition=middle;align=center;verticalAlign=middle;" parent="1" vertex="1">
          <mxGeometry x="510" y="285" width="85" height="30" as="geometry" />
        </mxCell>
        <mxCell id="yD5JBroYXntyzIU_LStq-2" style="edgeStyle=orthogonalEdgeStyle;rounded=0;orthogonalLoop=1;jettySize=auto;html=1;entryX=0;entryY=0.5;entryDx=0;entryDy=0;" edge="1" parent="1" source="yD5JBroYXntyzIU_LStq-1" target="A-W998lmlx4RPp3HRFfS-4">
          <mxGeometry relative="1" as="geometry" />
        </mxCell>
        <mxCell id="yD5JBroYXntyzIU_LStq-1" value="&lt;font style=&quot;font-size: 10px;&quot;&gt;channel&lt;/font&gt;" style="rounded=0;whiteSpace=wrap;html=1;labelPosition=center;verticalLabelPosition=middle;align=center;verticalAlign=middle;" vertex="1" parent="1">
          <mxGeometry x="380" y="290" width="85" height="20" as="geometry" />
        </mxCell>
      </root>
    </mxGraphModel>
  </diagram>
</mxfile>
